<?xml version="1.0" standalone="no"?>
<!DOCTYPE svg PUBLIC "-//W3C//DTD SVG 20010904//EN"
 "http://www.w3.org/TR/2001/REC-SVG-20010904/DTD/svg10.dtd">
<svg version="1.0" xmlns="http://www.w3.org/2000/svg"
 width="500.000000pt" height="500.000000pt" viewBox="0 0 500.000000 500.000000"
 preserveAspectRatio="xMidYMid meet">
<metadata>
Created by potrace 1.11, written by Peter Selinger 2001-2013
</metadata>
<g transform="translate(0.000000,500.000000) scale(0.100000,-0.100000)"
fill="#000000" stroke="none">
<path d="M625 2500 l0 -2300 343 0 c188 0 342 3 343 8 0 4 1 378 2 832 l2 825
393 1 c239 0 392 4 391 10 0 5 -11 21 -25 37 -33 37 -86 123 -106 172 -42 104
-52 258 -22 356 4 15 -24 16 -314 15 l-319 -1 0 878 0 877 417 0 418 0 3 -22
c2 -13 4 -339 3 -725 0 -387 1 -703 3 -703 1 0 31 16 66 35 84 46 145 64 242
71 166 12 313 -44 435 -166 109 -109 169 -242 171 -380 1 -54 2 -56 61 -113
201 -190 270 -256 405 -384 l150 -142 -1 -448 -1 -448 -419 0 -420 0 0 465 -1
465 -342 1 -343 1 -1 -36 c-3 -218 1 -1124 6 -1151 12 -75 18 -97 41 -141 46
-93 135 -156 250 -179 28 -5 372 -9 815 -9 824 -1 822 -1 927 52 54 26 108 85
135 146 22 49 24 54 35 141 8 61 7 1253 -1 1285 -3 11 -8 34 -13 50 -18 74
-68 152 -153 235 -75 74 -308 295 -396 375 -16 16 -100 94 -185 175 -85 81
-168 159 -185 174 -28 26 -217 204 -399 378 -45 42 -105 98 -135 126 l-54 49
1 349 c0 192 1 377 1 412 l1 62 419 0 419 0 0 -407 c0 -225 0 -417 1 -429 1
-20 4 -20 344 -20 l342 1 0 540 c1 353 -3 561 -10 600 -28 151 -95 229 -245
287 -29 11 -352 13 -1765 16 l-1730 2 0 -2300z"/>
<path d="M2350 2767 c-242 -82 -377 -311 -336 -571 12 -73 73 -183 138 -248
100 -100 226 -149 368 -143 169 7 313 93 403 239 18 28 32 53 33 56 0 3 9 32
19 65 21 69 23 170 5 247 -31 131 -137 266 -257 326 -77 39 -97 44 -213 48
-77 2 -107 -1 -160 -19z"/>
</g>
</svg>
